<?xml version="1.0" encoding="UTF-8"?>
<!DOCTYPE svg PUBLIC "-//W3C//DTD SVG 1.1//EN" "http://www.w3.org/Graphics/SVG/1.1/DTD/svg11.dtd">
<svg xmlns="http://www.w3.org/2000/svg" version="1.1" width="512px" height="512px" style="shape-rendering:geometricPrecision; text-rendering:geometricPrecision; image-rendering:optimizeQuality; fill-rule:evenodd; clip-rule:evenodd" xmlns:xlink="http://www.w3.org/1999/xlink">
<g><path style="opacity:0.997" fill="#4caf50" d="M 249.5,-0.5 C 253.5,-0.5 257.5,-0.5 261.5,-0.5C 324.637,22.8881 387.97,46.0548 451.5,69C 455.817,71.3151 458.65,74.8151 460,79.5C 460.244,138.67 460.744,197.837 461.5,257C 462.003,287.429 459.503,317.596 454,347.5C 445.803,383.74 427.97,414.24 400.5,439C 376.683,459.091 350.35,475.424 321.5,488C 301.677,496.547 281.677,504.38 261.5,511.5C 257.5,511.5 253.5,511.5 249.5,511.5C 212.168,499.17 176.501,483.004 142.5,463C 87.3382,429.438 57.1716,380.272 52,315.5C 50.6675,296.023 49.8342,276.523 49.5,257C 50.251,197.836 50.751,138.67 51,79.5C 52.3498,74.8151 55.1832,71.3151 59.5,69C 123.03,46.0548 186.363,22.8881 249.5,-0.5 Z"/></g>
<g><path style="opacity:1" fill="#f9f9f9" d="M 241.5,102.5 C 281.769,98.6474 308.603,115.647 322,153.5C 327.844,189.645 314.677,216.145 282.5,233C 250.244,244.646 223.077,237.479 201,211.5C 184.625,186.629 183.292,160.962 197,134.5C 207.829,118.157 222.663,107.491 241.5,102.5 Z"/></g>
<g><path style="opacity:1" fill="#f9f9f9" d="M 228.5,272.5 C 246.17,272.333 263.836,272.5 281.5,273C 326.715,280.88 352.048,307.546 357.5,353C 359.079,362.844 355.413,369.844 346.5,374C 285.833,374.667 225.167,374.667 164.5,374C 159.243,371.744 155.743,367.91 154,362.5C 153.406,321.194 172.239,292.694 210.5,277C 216.553,275.153 222.553,273.653 228.5,272.5 Z"/></g>
</svg>
